<?xml version="1.0" encoding="UTF-8" standalone="no"?>
<!DOCTYPE svg PUBLIC "-//W3C//DTD SVG 1.1//EN" "http://www.w3.org/Graphics/SVG/1.1/DTD/svg11.dtd">
<!--Generated by Intaglio, www.PurgatoryDesign.com-->
<svg version="1.1" viewBox="32,27,413,148" width="413" height="148" xmlns="http://www.w3.org/2000/svg" xmlns:xlink="http://www.w3.org/1999/xlink"><path fill="none" stroke="#000" stroke-linecap="square" stroke-dasharray="5,4" d="M416.934,73.4805 L416.934,31.4805"/><g><path fill="none" stroke="#ff0004" d="M242.934,106.48 C242.934,109.794,240.247,112.48,236.934,112.48 C233.62,112.48,230.934,109.794,230.934,106.48 C230.934,103.167,233.62,100.48,236.934,100.48 C240.247,100.48,242.934,103.167,242.934,106.48 Z"/><path fill="none" stroke="#ff0004" d="M242.934,112.48 C242.934,115.794,240.247,118.48,236.934,118.48 C233.62,118.48,230.934,115.794,230.934,112.48 C230.934,109.167,233.62,106.48,236.934,106.48 C240.247,106.48,242.934,109.167,242.934,112.48 Z"/></g><path fill="none" stroke="#ff0004" stroke-linecap="square" d="M236.934,100.48 L236.934,73.4805"/><path fill="none" stroke="#ff0004" stroke-linecap="square" d="M236.934,118.48 L236.934,145.48"/><path fill="none" stroke="#ff0004" d="M311.934,67.4805 L341.934,67.4805 L341.934,79.4805 L311.934,79.4805 Z"/><path fill="none" stroke="#ff0004" stroke-linecap="square" d="M341.934,73.4805 L416.934,73.4805"/><path fill="none" stroke="#ff0004" stroke-linecap="square" d="M311.934,73.4805 L236.934,73.4805"/><path fill="none" stroke="#ff0004" d="M410.934,94.4805 L422.934,94.4805 L422.934,124.48 L410.934,124.48 Z"/><path fill="none" stroke="#ff0004" stroke-linecap="square" d="M416.934,124.48 L416.934,145.48"/><path fill="none" stroke="#ff0004" stroke-linecap="square" d="M416.934,94.4805 L416.934,73.6055"/><path fill="none" stroke="#ff0004" stroke-linecap="square" d="M416.934,145.48 L416.934,163.48"/><path fill="none" stroke="#ff0004" d="M416.926,173.52 L422.934,163.48 L410.934,163.48 Z"/><g><path fill="none" stroke="#ff0004" stroke-linecap="square" d="M350.934,113.98 L374.934,113.98"/><path fill="none" stroke="#ff0004" stroke-linecap="square" d="M350.934,104.98 L374.934,104.98"/></g><path fill="none" stroke="#ff0004" stroke-linecap="square" d="M362.934,104.98 L362.934,73.4805"/><path fill="none" stroke="#ff0004" stroke-linecap="square" d="M362.934,113.98 L362.934,145.48"/><g><path fill="none" stroke="#ff0004" stroke-linecap="square" d="M278.934,113.98 L302.934,113.98"/><path fill="none" stroke="#ff0004" stroke-linecap="square" d="M278.934,104.98 L302.934,104.98"/></g><path fill="none" stroke="#ff0004" stroke-linecap="square" d="M290.934,104.98 L290.934,73.4805"/><path fill="none" stroke="#ff0004" stroke-linecap="square" d="M290.934,113.98 L290.934,145.48"/><path fill="none" stroke="#000" d="M176.934,94.4805 L188.934,94.4805 L188.934,124.48 L176.934,124.48 Z"/><path fill="none" stroke="#000" stroke-linecap="square" d="M182.934,124.48 L182.934,133.48"/><path fill="none" stroke="#000" stroke-linecap="square" d="M182.934,94.4805 L182.934,85.4805"/><path fill="none" stroke="#ff0004" stroke-linecap="square" d="M236.934,145.48 L416.934,145.48"/><path fill="#ffffcd" fill-rule="evenodd" stroke="#000" stroke-width="2" d="M50.9336,73.4805 L140.934,73.4805 L140.934,145.48 L50.9336,145.48 Z"/><path fill="none" stroke="#000" stroke-linecap="square" d="M50.9336,109.48 L32.9336,109.48"/><path fill="none" stroke="#000" stroke-linecap="square" d="M32.9336,109.48 L32.9336,31.4805"/><path fill="none" stroke="#000" stroke-linecap="square" d="M32.9336,31.4805 L236.934,31.4805"/><g><path fill="none" stroke="#000" stroke-linecap="square" d="M240.434,31.4805 L416.934,31.4805"/><path d="M240.934,35.4805 L230.934,31.4805 L240.934,27.4805"/></g><path fill="none" stroke="#000" stroke-linecap="square" d="M182.934,85.4805 L140.934,85.4805"/><path fill="none" stroke="#000" stroke-linecap="square" d="M182.934,133.48 L140.934,133.48"/><path fill="#ff0004" fill-rule="evenodd" stroke="#ff0004" d="M418.934,145.48 C418.934,146.585,418.038,147.48,416.934,147.48 C415.829,147.48,414.934,146.585,414.934,145.48 C414.934,144.376,415.829,143.48,416.934,143.48 C418.038,143.48,418.934,144.376,418.934,145.48 Z"/><path fill="#ff0004" fill-rule="evenodd" stroke="#ff0004" d="M364.934,145.48 C364.934,146.585,364.038,147.48,362.934,147.48 C361.829,147.48,360.934,146.585,360.934,145.48 C360.934,144.376,361.829,143.48,362.934,143.48 C364.038,143.48,364.934,144.376,364.934,145.48 Z"/><path fill="#ff0004" fill-rule="evenodd" stroke="#ff0004" d="M292.934,145.48 C292.934,146.585,292.038,147.48,290.934,147.48 C289.829,147.48,288.934,146.585,288.934,145.48 C288.934,144.376,289.829,143.48,290.934,143.48 C292.038,143.48,292.934,144.376,292.934,145.48 Z"/><path fill="#ff0004" fill-rule="evenodd" stroke="#ff0004" d="M292.934,73.4805 C292.934,74.585,292.038,75.4805,290.934,75.4805 C289.829,75.4805,288.934,74.585,288.934,73.4805 C288.934,72.3759,289.829,71.4805,290.934,71.4805 C292.038,71.4805,292.934,72.3759,292.934,73.4805 Z"/><path fill="#ff0004" fill-rule="evenodd" stroke="#ff0004" d="M364.934,73.4805 C364.934,74.585,364.038,75.4805,362.934,75.4805 C361.829,75.4805,360.934,74.585,360.934,73.4805 C360.934,72.3759,361.829,71.4805,362.934,71.4805 C364.038,71.4805,364.934,72.3759,364.934,73.4805 Z"/><path fill="#ff0004" fill-rule="evenodd" stroke="#ff0004" d="M418.934,73.4805 C418.934,74.585,418.038,75.4805,416.934,75.4805 C415.829,75.4805,414.934,74.585,414.934,73.4805 C414.934,72.3759,415.829,71.4805,416.934,71.4805 C418.038,71.4805,418.934,72.3759,418.934,73.4805 Z"/><g><path fill="none" stroke="#000" stroke-linecap="square" stroke-dasharray="5,4" d="M188.934,109.48 L221.434,109.48"/><path d="M220.934,105.48 L230.934,109.48 L220.934,113.48"/></g><text font-family="Times" font-size="12" transform="matrix(1,0,0,1,55.9258,112.473)" xml:space="preserve"><tspan>CONTROLLER</tspan></text><g><path fill="none" stroke="#ff0004" stroke-linecap="square" d="M236.934,73.4805 L257.434,73.4805"/><path fill="#ff0004" d="M256.934,69.4805 L266.934,73.4805 L256.934,77.4805"/></g><text fill="#ff0004" font-family="Times" font-style="italic" font-size="12" transform="matrix(1,0,0,1,256.582,65.2734)" xml:space="preserve"><tspan>W</tspan></text><g><text fill="#ff0004" font-family="Times" font-style="italic" font-size="12" transform="matrix(1,0,0,1,284.512,63.7734)" xml:space="preserve"><tspan>T</tspan></text><text fill="#ff0004" font-family="Times" font-size="9" transform="matrix(1,0,0,1,290.512,66.2734)" xml:space="preserve"><tspan>h</tspan></text></g><g><text fill="#ff0004" font-family="Times" font-style="italic" font-size="12" transform="matrix(1,0,0,1,307.012,113.266)" xml:space="preserve"><tspan>C</tspan></text><text fill="#ff0004" font-family="Times" font-size="9" transform="matrix(1,0,0,1,315.012,115.766)" xml:space="preserve"><tspan>h</tspan></text></g><g><text fill="#ff0004" font-family="Times" font-style="italic" font-size="12" transform="matrix(1,0,0,1,379.512,113.266)" xml:space="preserve"><tspan>C</tspan></text><text fill="#ff0004" font-family="Times" font-size="9" transform="matrix(1,0,0,1,387.512,115.766)" xml:space="preserve"><tspan>o</tspan></text></g><g><text fill="#ff0004" font-family="Times" font-style="italic" font-size="12" transform="matrix(1,0,0,1,430.012,113.114)" xml:space="preserve"><tspan>R</tspan></text><text fill="#ff0004" font-family="Times" font-size="9" transform="matrix(1,0,0,1,438.012,115.614)" xml:space="preserve"><tspan>o</tspan></text></g><g><text fill="#ff0004" font-family="Times" font-style="italic" font-size="12" transform="matrix(1,0,0,1,318.655,60.3599)" xml:space="preserve"><tspan>R</tspan></text><text fill="#ff0004" font-family="Times" font-size="9" transform="matrix(1,0,0,1,326.655,62.8599)" xml:space="preserve"><tspan>ho</tspan></text></g><g><text fill="#ff0004" font-family="Times" font-style="italic" font-size="12" transform="matrix(1,0,0,1,422.512,74.7659)" xml:space="preserve"><tspan>T</tspan></text><text fill="#ff0004" font-family="Times" font-size="9" transform="matrix(1,0,0,1,429.012,77.2659)" xml:space="preserve"><tspan>o</tspan></text></g><g><text fill="#ff0004" font-family="Times" font-style="italic" font-size="12" transform="matrix(1,0,0,1,423.102,146.844)" xml:space="preserve"><tspan>T</tspan></text><text fill="#ff0004" font-family="Times" font-size="9" transform="matrix(1,0,0,1,429.602,149.344)" xml:space="preserve"><tspan>e</tspan></text></g></svg>
