<?xml version="1.0" encoding="UTF-8"?>
<svg width="57px" height="57px" viewBox="0 0 57 57" version="1.1" xmlns="http://www.w3.org/2000/svg" xmlns:xlink="http://www.w3.org/1999/xlink">
    <!-- Generator: Sketch 50.2 (55047) - http://www.bohemiancoding.com/sketch -->
    <title>ico-social-instagram</title>
    <desc>Created with Sketch.</desc>
    <defs></defs>
    <g id="Page-1" stroke="none" stroke-width="1" fill="none" fill-rule="evenodd">
        <g id="ico-social-instagram" fill="#FFFFFF" fill-rule="nonzero">
            <path d="M47.5,0 L9.5,0 C4.24333333,0 0,4.24333333 0,9.5 L0,47.5 C0,52.7566667 4.24333333,57 9.5,57 L47.5,57 C52.7566667,57 57,52.7566667 57,47.5 L57,9.5 C57,4.24333333 52.7566667,0 47.5,0 Z M50.6666667,47.5 C50.6666667,49.2733333 49.2733333,50.6666667 47.5,50.6666667 L9.5,50.6666667 C7.72666667,50.6666667 6.33333333,49.2733333 6.33333333,47.5 L6.33333333,25.3333333 L16.2766667,25.3333333 C16.0233333,26.3466667 15.8333333,27.4233333 15.8333333,28.5 C15.8333333,35.4666667 21.5333333,41.1666667 28.5,41.1666667 C35.4666667,41.1666667 41.1666667,35.4666667 41.1666667,28.5 C41.1666667,27.4233333 41.04,26.3466667 40.7233333,25.3333333 L50.6666667,25.3333333 L50.6666667,47.5 Z M22.1666667,28.5 C22.1666667,25.0166667 25.0166667,22.1666667 28.5,22.1666667 C31.9833333,22.1666667 34.8333333,25.0166667 34.8333333,28.5 C34.8333333,31.9833333 31.9833333,34.8333333 28.5,34.8333333 C25.0166667,34.8333333 22.1666667,31.9833333 22.1666667,28.5 Z M50.6666667,19 L36.86,19 C34.6433333,17.0366667 31.73,15.8333333 28.5,15.8333333 C25.27,15.8333333 22.3566667,17.0366667 20.14,19 L6.33333333,19 L6.33333333,9.5 C6.33333333,7.72666667 7.72666667,6.33333333 9.5,6.33333333 L47.5,6.33333333 C49.2733333,6.33333333 50.6666667,7.72666667 50.6666667,9.5 L50.6666667,19 Z" id="Shape"></path>
            <rect id="Rectangle-path" x="41.1666667" y="9.5" width="6.33333333" height="6.33333333"></rect>
        </g>
    </g>
</svg>